PathFileType	4	(X/Y/Z)	C:\Users\Basilio\Documents\Thesis Gigler\squatting_fais\c3dfiles\040\SLS_pre_front3\markers_experimental.trc
DataRate	CameraRate	NumFrames	NumMarkers	Units	OrigDataRate	OrigDataStartFrame	OrigNumFrames
200.000000	200.000000	4	62	mm	200.000000	558	1116
Frame#	Time	FHD			LBHD			RBHD			C7			T10			CLAV			LSHO			LUUPA			LMUPA			LDUPA			LLEP			LMEP			LRAD			LUL			LRFIN			RSHO			RUPA1			RMUPA			RDUPA			RLEP			RMEP			RRAD			RUL			RUFIN			LASI			RASI			USACR			LSACR			RSACR			LTHI1			LTHI2			LTHI3			LTHI4			LLFC			LMFC			LTIB1			LTIB2			LTIB3			LTIB4			LLMAL			LMMAL			LHEE			LMT1			LMT2			LMT5			RTHI			RTHI2			RTHI3			RTHI4			RLFC			RMFC			RTIB1			RTIB2			RTIB3			RTIB4			RLMAL			RMMAL			RHEE			RMT1			RMT2			RMT5			*61			
		X1	Y1	Z1	X2	Y2	Z2	X3	Y3	Z3	X4	Y4	Z4	X5	Y5	Z5	X6	Y6	Z6	X7	Y7	Z7	X8	Y8	Z8	X9	Y9	Z9	X10	Y10	Z10	X11	Y11	Z11	X12	Y12	Z12	X13	Y13	Z13	X14	Y14	Z14	X15	Y15	Z15	X16	Y16	Z16	X17	Y17	Z17	X18	Y18	Z18	X19	Y19	Z19	X20	Y20	Z20	X21	Y21	Z21	X22	Y22	Z22	X23	Y23	Z23	X24	Y24	Z24	X25	Y25	Z25	X26	Y26	Z26	X27	Y27	Z27	X28	Y28	Z28	X29	Y29	Z29	X30	Y30	Z30	X31	Y31	Z31	X32	Y32	Z32	X33	Y33	Z33	X34	Y34	Z34	X35	Y35	Z35	X36	Y36	Z36	X37	Y37	Z37	X38	Y38	Z38	X39	Y39	Z39	X40	Y40	Z40	X41	Y41	Z41	X42	Y42	Z42	X43	Y43	Z43	X44	Y44	Z44	X45	Y45	Z45	X46	Y46	Z46	X47	Y47	Z47	X48	Y48	Z48	X49	Y49	Z49	X50	Y50	Z50	X51	Y51	Z51	X52	Y52	Z52	X53	Y53	Z53	X54	Y54	Z54	X55	Y55	Z55	X56	Y56	Z56	X57	Y57	Z57	X58	Y58	Z58	X59	Y59	Z59	X60	Y60	Z60	X61	Y61	Z61	X62	Y62	Z62	

559	2.79	-170.3851623535157	1519.16357421875	-1150.726196289063	-290.8367919921876	1460.283325195313	-1194.712890625	-343.3045349121094	1417.380126953125	-1063.986328125	-337.0629577636719	1317.884033203125	-1110.026611328125	-474.1599426269532	1046.808471679688	-1077.215209960938	-231.2688598632813	1230.180786132813	-1122.842895507813	-272.7289123535157	1313.714965820313	-1247.899047851563	-120.3059463500977	1286.280151367188	-1328.726684570313	-91.59747314453126	1297.493041992188	-1289.511474609375	-51.41328811645509	1278.358276367188	-1330.853881835938	7.670154571533205	1255.003540039063	-1332.982666015625	0.1898337304592133	1197.01708984375	-1303.010620117188	nan	nan	nan	282.8780517578126	1293.997680664063	-1274.724487304688	347.5684204101563	1302.332763671875	-1180.814697265625	-236.7622833251954	1296.62646484375	-989.234558105469	-76.16125488281251	1247.159057617188	-922.0926513671877	-52.19690322875978	1269.882202148438	-958.423034667969	-9.4283504486084	1233.684814453125	-934.2926025390627	52.26417922973634	1229.233764648438	-951.137878417969	39.2016830444336	1168.911743164063	-998.3468017578127	294.9262695312501	1291.955078125	-1112.50927734375	310.3423767089844	1273.5419921875	-1039.15283203125	395.2548217773439	1300.757080078125	-1108.502319335938	-357.6233825683594	836.089050292969	-1164.84375	-351.2229919433594	862.7788085937502	-945.830261230469	-532.8738403320314	893.5017089843752	-1049.29052734375	-545.1915893554689	860.5684204101565	-1073.875732421875	-542.9159545898439	866.1770629882815	-1018.489318847656	-316.2925109863282	600.4421386718751	-1209.9267578125	-233.4311065673829	578.4125976562501	-1221.66015625	-203.9365997314454	614.1000976562501	-1228.269775390625	-206.6746978759766	528.1700439453126	-1203.242553710938	-107.3427352905274	457.7886657714845	-1191.404541015625	-111.1974716186524	461.4658508300782	-1065.669799804688	-154.8783111572266	259.0213317871094	-1114.179931640625	-232.8688659667969	254.0934753417969	-1157.98779296875	-200.2532806396485	232.147201538086	-1136.6240234375	-236.9356231689454	167.8272857666016	-1090.96826171875	-342.3993225097657	123.3580169677735	-1102.900268554688	-303.3985595703126	135.7968139648438	-1019.981811523438	-412.0747985839845	96.87149047851565	-1047.0234375	-197.4833374023438	54.58998870849611	-1048.926879882813	-203.9341888427735	51.79040145874025	-1095.270751953125	-261.0932312011719	39.38529586791993	-1136.698974609375	-266.6633911132813	651.8115234375001	-860.0339355468752	-204.7515106201172	633.5469970703126	-872.028259277344	-181.5084533691407	657.0030517578126	-880.3688964843752	-172.984619140625	557.1444702148439	-880.319763183594	-74.0014114379883	466.781463623047	-894.6276855468752	-71.1315383911133	462.3988647460939	-1030.786743164063	92.59698486328126	374.9588317871094	-925.896911621094	100.5172653198242	270.0969543457032	-899.4597167968752	134.0271911621094	299.4607849121094	-911.9616699218752	178.1729278564453	280.4277648925782	-946.0755004882815	226.9786834716797	164.6174011230469	-925.2222290039065	226.9309082031251	186.0513763427735	-1012.273498535156	213.7596740722657	86.29505157470705	-976.1001586914065	376.2156677246094	235.1346435546876	-998.3432617187502	373.3810729980469	238.5000762939454	-959.5559082031252	364.0260314941407	192.2080993652344	-905.883972167969	nan	nan	nan	
560	2.795	-170.8466491699219	1520.572998046875	-1150.332397460938	-291.1368713378907	1461.659423828125	-1194.576904296875	-343.7371520996094	1418.630249023438	-1063.922729492188	-337.2876281738282	1319.321655273438	-1110.001953125	-474.1163330078126	1047.924560546875	-1077.2001953125	-231.2862396240235	1231.6611328125	-1122.791381835938	-272.8832397460938	1315.056762695313	-1247.913818359375	-120.2243804931641	1288.0673828125	-1328.939819335938	-91.44399261474611	1298.814331054688	-1289.316040039063	-51.57382202148439	1279.760498046875	-1330.932006835938	7.507517337799074	1256.685180664063	-1332.810546875	0.250969022512436	1198.308227539063	-1302.615112304688	nan	nan	nan	282.8536987304688	1295.850341796875	-1274.446044921875	347.5029602050782	1304.309204101563	-1180.723388671875	-236.3824462890626	1298.158203125	-988.8528442382815	-76.39028167724611	1248.23486328125	-922.1411132812502	-52.31469345092775	1271.018310546875	-958.4967041015627	-10.25287532806397	1234.627197265625	-934.736755371094	51.609676361084	1230.844482421875	-950.9190673828127	39.37244415283204	1170.467041015625	-999.0744628906252	294.8034362792969	1293.837646484375	-1112.43359375	309.8504028320313	1275.492431640625	-1039.17626953125	394.9115600585939	1302.879516601563	-1108.271118164063	-357.4711608886719	837.192810058594	-1165.144287109375	-350.6663513183594	863.6983642578127	-946.0419921875002	-532.6073608398439	894.9970703125002	-1049.366333007813	-546.0881958007814	862.0332031250002	-1074.135375976563	-542.9587402343751	867.5964355468752	-1018.440795898438	-316.7051696777344	601.3934936523439	-1210.0126953125	-233.8775634765626	579.3693237304689	-1221.924682617188	-204.2687530517579	614.8880004882814	-1228.464233398438	-207.1460266113282	528.7852172851564	-1203.264526367188	-107.8789978027344	458.2312316894532	-1191.470092773438	-112.2518386840821	462.0218811035157	-1066.034057617188	-155.1452941894532	259.1134643554688	-1114.228881835938	-233.2137145996094	254.2512664794922	-1158.062133789063	-200.4992828369141	232.2730102539063	-1136.742797851563	-237.0965270996094	168.0924377441407	-1090.983032226563	-342.5230102539063	123.2712326049805	-1102.98974609375	-303.6321105957032	136.0445709228516	-1020.022888183594	-412.0963439941407	96.86318206787112	-1046.990234375	-197.8619232177735	55.1438674926758	-1048.627807617188	-203.9766540527344	51.82698822021486	-1095.24658203125	-261.0802001953126	39.35193252563477	-1136.661743164063	-266.6945190429688	652.6593627929689	-860.2119750976565	-204.9220275878907	634.3532104492189	-872.2412109375002	-182.4187164306641	657.4821777343751	-881.1333618164065	-173.5387573242188	557.8526000976564	-880.193054199219	-74.57081604003908	467.476043701172	-894.7408447265627	-71.60182952880861	462.8212280273439	-1030.753051757813	91.74507141113283	375.4548950195313	-925.578063964844	99.59281921386722	270.4449157714844	-899.4097290039065	133.3014373779297	299.5757141113282	-911.9356689453127	177.1407470703125	280.6231384277344	-946.056823730469	226.0870361328126	164.6165618896485	-924.7961425781252	225.7554779052735	185.8649291992188	-1012.036315917969	212.7640228271485	86.19028472900392	-975.909362792969	375.5335388183594	234.8490142822266	-998.1372070312502	372.4078369140626	237.9056701660157	-959.1180419921877	362.6569213867188	192.2847442626954	-905.8540649414065	nan	nan	nan	
561	2.8	-171.2218170166016	1522.338623046875	-1150.407104492188	-291.5594787597657	1463.289794921875	-1194.535278320313	-344.2110595703126	1420.352416992188	-1063.952758789063	-337.4392089843751	1320.822998046875	-1109.90673828125	-473.9381103515626	1049.248046875	-1077.233642578125	-231.4290466308594	1233.285278320313	-1122.77099609375	-273.1158752441407	1316.643798828125	-1247.874877929688	-120.4999313354492	1289.59619140625	-1328.925537109375	-91.61811828613283	1300.289672851563	-1289.273315429688	-51.83668518066408	1281.383422851563	-1330.7958984375	7.568042755126955	1258.144897460938	-1332.847290039063	0.09104188531637193	1200.123168945313	-1302.623901367188	nan	nan	nan	282.3746643066407	1297.92236328125	-1274.469116210938	347.3774108886719	1306.053344726563	-1180.744262695313	-236.6903381347657	1299.556396484375	-988.853698730469	-76.5362014770508	1250.166625976563	-922.035583496094	-52.59939575195314	1272.847534179688	-958.3181762695315	-9.861842155456545	1236.541870117188	-934.1856079101565	51.67256164550783	1232.646240234375	-950.890319824219	39.03240203857423	1172.036865234375	-998.430603027344	294.5834045410157	1295.5830078125	-1112.285278320313	309.9984130859376	1277.10986328125	-1038.577758789063	395.1736145019532	1304.518432617188	-1107.828735351563	-357.3054809570313	838.3921508789065	-1165.237548828125	-350.5155334472657	864.6416015625002	-946.0129394531252	-532.3621215820314	896.1131591796877	-1049.272338867188	-544.7465820312501	863.1798095703127	-1073.697509765625	-542.6593627929689	868.8052368164065	-1018.4208984375	-316.9855041503907	602.2924194335939	-1210.057373046875	-234.304428100586	580.1242675781251	-1222.029052734375	-204.5551300048829	615.6049804687501	-1228.711181640625	-207.6198120117188	529.4170532226564	-1203.278198242188	-108.4405822753907	458.7093505859376	-1191.541625976563	-112.801383972168	462.412567138672	-1066.178100585938	-155.3746948242188	259.4878234863282	-1114.321899414063	-233.506332397461	254.4416961669922	-1158.05126953125	-200.8503875732422	232.3904724121094	-1136.903076171875	-237.2060089111329	168.2561645507813	-1090.916748046875	-342.6194152832032	123.2749862670899	-1102.993286132813	-303.5741271972657	135.8640899658203	-1020.036071777344	-412.0814819335939	96.87012481689456	-1047.016479492188	-197.4669647216797	54.64748001098634	-1048.96435546875	-203.9388580322266	51.81619262695314	-1095.221069335938	-261.0753173828126	39.36492156982423	-1136.696899414063	-266.8872375488282	653.6806640625001	-860.2058715820315	-205.2210845947266	635.3128051757814	-872.2200317382815	-182.6429138183594	658.5734863281251	-881.0437011718752	-173.7504577636719	558.6943359375001	-880.2855224609377	-75.06414794921876	468.0165405273439	-894.7552490234377	-72.11992645263673	463.071014404297	-1030.765747070313	91.36135864257814	375.2560424804688	-925.434265136719	98.7104415893555	270.8127136230469	-899.313659667969	132.453598022461	299.7659301757813	-911.798034667969	176.6586151123047	280.5289611816407	-946.059997558594	224.8601379394532	164.7364807128907	-924.6765747070315	224.7707672119141	186.0489501953125	-1011.887634277344	211.5574493408204	86.26087188720705	-975.7984619140627	375.7976379394532	235.3945312500001	-998.201843261719	371.5312194824219	237.6018829345704	-958.8540649414065	361.5732116699219	191.9061889648438	-905.6719360351565	nan	nan	nan	
562	2.805	-171.8524932861328	1523.887329101563	-1150.121826171875	-291.9825134277344	1464.58349609375	-1194.475341796875	-344.4095458984376	1421.3505859375	-1063.959716796875	-337.6147155761719	1322.203247070313	-1109.838745117188	-473.693572998047	1050.431884765625	-1077.243530273438	-231.5064849853516	1234.805419921875	-1122.745727539063	-273.2780761718751	1318.041259765625	-1247.927001953125	-120.6148910522461	1291.029174804688	-1328.873413085938	-92.13325500488283	1302.1572265625	-1289.340087890625	-52.05271530151369	1282.907958984375	-1330.832641601563	7.160447597503664	1259.802978515625	-1332.59619140625	-0.06910720467567445	1201.627319335938	-1302.443969726563	nan	nan	nan	282.4177246093751	1299.485107421875	-1274.249633789063	346.9525146484376	1308.071166992188	-1180.631713867188	-236.8633728027344	1300.950317382813	-988.7984008789065	-76.49876403808595	1251.209716796875	-921.9043579101565	-52.96681976318361	1274.1220703125	-958.2691650390627	-10.54952526092529	1237.691284179688	-934.635437011719	51.40047454833986	1234.062622070313	-950.841003417969	38.80981063842774	1173.517700195313	-998.7346191406252	294.3424682617188	1297.374145507813	-1112.375610351563	309.7419433593751	1279.085083007813	-1038.597534179688	394.9901123046876	1306.335083007813	-1107.963256835938	-357.3324890136719	839.9951782226565	-1165.369140625	-349.8790588378907	866.213317871094	-946.4505615234377	-532.0576171875001	897.5427246093752	-1049.327392578125	-545.7000732421876	864.6319580078127	-1074.040161132813	-542.3801269531251	870.1365356445315	-1018.351623535156	-317.1333618164063	603.3712158203126	-1210.039916992188	-234.5561218261719	580.7594604492189	-1222.1044921875	-204.7752685546876	616.1112670898439	-1228.835571289063	-208.0717468261719	530.2436523437501	-1203.521850585938	-109.1031875610352	459.1512451171876	-1191.712280273438	-113.2191848754883	462.7440490722657	-1066.4208984375	-155.5599975585938	259.6044921875001	-1114.423217773438	-233.8763427734376	254.5375518798829	-1158.12548828125	-201.2150115966797	232.5304870605469	-1136.98193359375	-237.2672424316407	168.3138885498047	-1091.055786132813	-342.6318969726563	123.2803726196289	-1103.029174804688	-303.6909790039063	136.0030517578125	-1020.102355957031	-412.0349121093751	96.79785919189456	-1047.046020507813	-197.8238983154297	55.24225997924806	-1048.717651367188	-204.0118255615235	51.78134918212892	-1095.219970703125	-261.0370178222657	39.32522201538087	-1136.709350585938	-266.9500732421876	654.9798583984376	-860.2301025390627	-205.1438446044922	636.0736083984376	-872.174255371094	-181.9188995361328	659.6131591796876	-880.4876708984377	-173.9970703125	559.6195678710939	-880.3150634765627	-75.3616409301758	468.7653198242189	-894.7139282226565	-72.70590972900392	464.0091857910157	-1030.932861328125	90.57895660400392	375.5314331054688	-925.2750244140627	97.85886383056643	270.8952026367188	-899.185241699219	131.5647583007813	299.8363342285157	-911.616394042969	175.573226928711	280.6940002441407	-945.938659667969	223.7991333007813	164.7804260253907	-924.4404296875002	223.8004302978516	185.9479370117188	-1011.713989257813	209.7954254150391	86.10578918457033	-975.6053466796877	374.8941040039063	234.8527832031251	-997.8941040039065	370.7194824218751	237.5810699462891	-958.361511230469	360.5100097656251	191.3050384521485	-905.0379028320315	nan	nan	nan	
